<mxfile host="app.diagrams.net" modified="2022-09-12T04:49:53.186Z" agent="5.0 (Macintosh; Intel Mac OS X 10_15_7) AppleWebKit/537.36 (KHTML, like Gecko) Chrome/104.0.0.0 Safari/537.36" etag="pFuQj980XqfWdNWFI57Q" version="20.2.0" type="github">
  <diagram id="-WR1edaPvzeJWzguThVa" name="第 1 页">
    <mxGraphModel dx="889" dy="588" grid="0" gridSize="10" guides="1" tooltips="1" connect="1" arrows="1" fold="1" page="1" pageScale="1" pageWidth="827" pageHeight="1169" math="0" shadow="0">
      <root>
        <mxCell id="0" />
        <mxCell id="1" parent="0" />
        <mxCell id="2XJD0f840Zib2jVczMYh-3" style="edgeStyle=orthogonalEdgeStyle;rounded=0;orthogonalLoop=1;jettySize=auto;html=1;exitX=0.5;exitY=1;exitDx=0;exitDy=0;entryX=0.5;entryY=0;entryDx=0;entryDy=0;fontSize=14;fontColor=#000000;" edge="1" parent="1" source="2XJD0f840Zib2jVczMYh-1" target="2XJD0f840Zib2jVczMYh-2">
          <mxGeometry relative="1" as="geometry" />
        </mxCell>
        <mxCell id="2XJD0f840Zib2jVczMYh-1" value="__getitem__" style="rounded=1;whiteSpace=wrap;html=1;fontSize=14;" vertex="1" parent="1">
          <mxGeometry x="80" y="40" width="120" height="60" as="geometry" />
        </mxCell>
        <mxCell id="2XJD0f840Zib2jVczMYh-5" style="edgeStyle=orthogonalEdgeStyle;rounded=0;orthogonalLoop=1;jettySize=auto;html=1;exitX=0.5;exitY=1;exitDx=0;exitDy=0;fontSize=14;fontColor=#000000;" edge="1" parent="1" source="2XJD0f840Zib2jVczMYh-2" target="2XJD0f840Zib2jVczMYh-4">
          <mxGeometry relative="1" as="geometry" />
        </mxCell>
        <mxCell id="2XJD0f840Zib2jVczMYh-2" value="self.db" style="rounded=1;whiteSpace=wrap;html=1;fontSize=14;" vertex="1" parent="1">
          <mxGeometry x="80" y="140" width="120" height="60" as="geometry" />
        </mxCell>
        <mxCell id="2XJD0f840Zib2jVczMYh-8" style="edgeStyle=orthogonalEdgeStyle;rounded=0;orthogonalLoop=1;jettySize=auto;html=1;exitX=0.5;exitY=1;exitDx=0;exitDy=0;entryX=0.5;entryY=0;entryDx=0;entryDy=0;fontSize=14;fontColor=#000000;" edge="1" parent="1" source="2XJD0f840Zib2jVczMYh-4" target="2XJD0f840Zib2jVczMYh-6">
          <mxGeometry relative="1" as="geometry" />
        </mxCell>
        <mxCell id="2XJD0f840Zib2jVczMYh-4" value="self._get_db" style="rounded=1;whiteSpace=wrap;html=1;fontSize=14;" vertex="1" parent="1">
          <mxGeometry x="80" y="240" width="120" height="60" as="geometry" />
        </mxCell>
        <mxCell id="2XJD0f840Zib2jVczMYh-10" style="edgeStyle=orthogonalEdgeStyle;rounded=0;orthogonalLoop=1;jettySize=auto;html=1;exitX=0.5;exitY=1;exitDx=0;exitDy=0;entryX=0.5;entryY=0;entryDx=0;entryDy=0;fontSize=14;fontColor=#000000;" edge="1" parent="1" source="2XJD0f840Zib2jVczMYh-6" target="2XJD0f840Zib2jVczMYh-9">
          <mxGeometry relative="1" as="geometry" />
        </mxCell>
        <mxCell id="2XJD0f840Zib2jVczMYh-6" value="_load_coco_keypoint_annotations" style="rounded=1;whiteSpace=wrap;html=1;fontSize=14;" vertex="1" parent="1">
          <mxGeometry x="380" y="40" width="240" height="60" as="geometry" />
        </mxCell>
        <mxCell id="2XJD0f840Zib2jVczMYh-9" value="_load_coco_keypoint_annotations_kernal" style="rounded=1;whiteSpace=wrap;html=1;fontSize=14;" vertex="1" parent="1">
          <mxGeometry x="355" y="140" width="290" height="60" as="geometry" />
        </mxCell>
        <mxCell id="2XJD0f840Zib2jVczMYh-11" value="self.coco" style="rounded=1;whiteSpace=wrap;html=1;fontSize=14;" vertex="1" parent="1">
          <mxGeometry x="363" y="250" width="120" height="60" as="geometry" />
        </mxCell>
        <mxCell id="2XJD0f840Zib2jVczMYh-14" value="&lt;div style=&quot;text-align: left;&quot;&gt;&lt;span style=&quot;background-color: initial;&quot;&gt;调用了 pycocotools 的 api&lt;/span&gt;&lt;/div&gt;&lt;div style=&quot;text-align: left;&quot;&gt;&lt;span style=&quot;background-color: initial;&quot;&gt;获取每个 image 的 annotation 信息&lt;/span&gt;&lt;/div&gt;" style="text;html=1;strokeColor=none;fillColor=none;align=center;verticalAlign=middle;whiteSpace=wrap;rounded=0;fontSize=14;fontColor=#000000;" vertex="1" parent="1">
          <mxGeometry x="350" y="320" width="170" height="50" as="geometry" />
        </mxCell>
        <mxCell id="2XJD0f840Zib2jVczMYh-15" value="" style="strokeWidth=2;html=1;shape=mxgraph.flowchart.annotation_2;align=left;labelPosition=right;pointerEvents=1;fontSize=14;fontColor=#000000;rotation=90;" vertex="1" parent="1">
          <mxGeometry x="476" y="148" width="50" height="155" as="geometry" />
        </mxCell>
        <mxCell id="2XJD0f840Zib2jVczMYh-18" value="&lt;span style=&quot;color: rgb(0, 0, 0); font-family: Helvetica; font-size: 14px; font-style: normal; font-variant-ligatures: normal; font-variant-caps: normal; font-weight: 400; letter-spacing: normal; orphans: 2; text-align: center; text-indent: 0px; text-transform: none; widows: 2; word-spacing: 0px; -webkit-text-stroke-width: 0px; background-color: rgb(248, 249, 250); text-decoration-thickness: initial; text-decoration-style: initial; text-decoration-color: initial; float: none; display: inline !important;&quot;&gt;返回每张 image 处理过后的基本信息&lt;/span&gt;" style="text;whiteSpace=wrap;html=1;fontSize=14;fontColor=#000000;" vertex="1" parent="1">
          <mxGeometry x="508" y="250" width="240" height="40" as="geometry" />
        </mxCell>
      </root>
    </mxGraphModel>
  </diagram>
</mxfile>
